<?xml version="1.0" standalone="no"?>
<!DOCTYPE svg PUBLIC "-//W3C//DTD SVG 20010904//EN"
 "http://www.w3.org/TR/2001/REC-SVG-20010904/DTD/svg10.dtd">
<svg version="1.0" xmlns="http://www.w3.org/2000/svg"
 width="207.000000pt" height="231.000000pt" viewBox="0 0 207.000000 231.000000"
 preserveAspectRatio="xMidYMid meet">
<metadata>
Created by potrace 1.16, written by Peter Selinger 2001-2019
</metadata>
<g transform="translate(0.000000,231.000000) scale(0.100000,-0.100000)"
fill="#0C8DFF" stroke="none">
<path d="M543 1998 l-483 -280 0 -375 0 -375 73 40 c39 21 116 63 169 92 l98
54 0 42 c0 107 61 264 140 358 122 146 310 236 493 236 67 0 183 -26 255 -57
l42 -18 -245 -145 -245 -145 0 -190 0 -190 160 -93 c88 -50 165 -92 171 -92 6
0 116 63 246 140 129 77 238 140 241 140 12 0 -9 -131 -31 -193 -89 -244 -308
-408 -567 -424 -69 -4 -102 -1 -170 17 -47 12 -95 24 -106 27 -15 3 -75 -25
-185 -85 -90 -49 -164 -93 -166 -98 -3 -10 582 -347 601 -347 6 0 226 125 489
278 l477 277 -2 566 -3 566 -440 253 c-242 139 -460 263 -485 277 l-45 24
-482 -280z"/>
</g>
</svg>
