<?xml version="1.0" standalone="no"?>
<!DOCTYPE svg PUBLIC "-//W3C//DTD SVG 20010904//EN"
 "http://www.w3.org/TR/2001/REC-SVG-20010904/DTD/svg10.dtd">
<svg version="1.0" xmlns="http://www.w3.org/2000/svg"
 width="616.000000pt" height="616.000000pt" viewBox="0 0 616.000000 616.000000"
 preserveAspectRatio="xMidYMid meet">
<metadata>
Created by potrace 1.11, written by Peter Selinger 2001-2013
</metadata>
<g transform="translate(0.000000,616.000000) scale(0.100000,-0.100000)"
fill="#000000" stroke="none">
<path d="M3030 6060 c0 -5 -5 -10 -11 -10 -8 0 -125 -65 -269 -150 -8 -5 -197
-115 -420 -244 -223 -129 -410 -239 -416 -243 -5 -4 -23 -15 -40 -24 -16 -9
-155 -89 -309 -179 -154 -89 -300 -174 -325 -188 -25 -13 -81 -46 -125 -72
-124 -73 -525 -305 -575 -333 -53 -29 -71 -58 -60 -97 4 -15 4 -33 0 -40 -5
-7 -5 -23 0 -35 5 -12 5 -28 0 -35 -5 -7 -5 -23 0 -35 5 -12 5 -27 0 -34 -4
-7 -4 -27 -1 -45 4 -17 4 -42 1 -56 -3 -14 -3 -38 0 -55 4 -16 3 -42 -1 -57
-4 -16 -3 -30 1 -33 5 -3 5 -19 0 -35 -5 -17 -6 -30 -2 -30 4 0 6 -30 5 -67
-1 -38 -2 -80 -2 -95 -2 -62 -3 -84 -5 -103 -1 -11 1 -35 5 -53 4 -17 3 -34
-1 -37 -4 -3 -4 -21 0 -40 4 -19 4 -35 0 -35 -5 0 -5 -13 0 -30 5 -18 5 -32
-1 -36 -5 -3 -6 -10 -3 -16 4 -6 6 -38 5 -72 -1 -33 -2 -67 -1 -73 0 -25 0
-49 -1 -106 0 -32 1 -61 4 -63 3 -3 1 -19 -3 -35 -5 -16 -5 -31 0 -34 5 -3 5
-19 0 -35 -5 -17 -6 -30 -2 -30 4 0 6 -19 5 -42 -2 -24 -3 -59 -3 -78 0 -19 0
-44 0 -55 0 -11 0 -29 0 -40 1 -11 1 -27 0 -35 0 -8 0 -24 0 -35 1 -11 1 -26
1 -32 -1 -23 -2 -47 -1 -105 1 -64 10 -71 51 -40 13 10 51 31 84 47 33 17 62
33 63 38 2 4 7 7 11 7 5 0 70 34 146 76 76 41 168 91 204 111 70 38 137 74
266 146 l80 44 1 79 c1 43 5 109 9 146 4 37 6 69 4 70 -1 2 3 13 9 25 7 12 14
39 18 60 10 69 75 246 136 373 34 69 64 127 67 130 4 3 22 30 41 60 98 159
306 358 500 481 46 30 111 64 223 121 75 38 300 109 382 122 78 12 122 19 140
22 31 6 245 6 289 -1 98 -14 200 -33 241 -45 17 -5 41 -11 55 -14 84 -15 363
-123 355 -136 -2 -4 -60 -39 -127 -79 -68 -40 -130 -76 -138 -82 -29 -17 -425
-252 -460 -271 -60 -34 -154 -90 -180 -108 -14 -9 -42 -25 -62 -35 -21 -9 -38
-21 -38 -26 0 -5 -5 -9 -10 -9 -6 0 -69 -35 -141 -77 -125 -74 -161 -104 -139
-118 5 -3 6 -15 0 -29 -4 -12 -4 -29 0 -36 5 -8 5 -21 0 -30 -5 -9 -5 -22 0
-30 5 -8 5 -21 0 -30 -5 -9 -5 -22 0 -30 5 -8 6 -18 3 -23 -8 -13 -9 -87 -1
-87 4 0 3 -13 -2 -30 -5 -17 -5 -30 0 -30 5 0 5 -13 0 -30 -5 -17 -5 -30 0
-30 5 0 5 -13 0 -30 -5 -17 -5 -30 0 -30 5 0 5 -13 0 -30 -5 -17 -5 -30 0 -30
5 0 5 -13 0 -30 -5 -17 -5 -30 0 -30 5 0 5 -13 0 -30 -5 -17 -5 -30 0 -30 5 0
5 -13 0 -30 -5 -17 -5 -30 0 -30 5 0 5 -13 0 -30 -5 -17 -5 -30 0 -30 5 0 5
-13 0 -30 -5 -16 -6 -30 -2 -30 8 0 7 -68 -1 -76 -3 -3 -2 -16 3 -29 5 -13 7
-25 4 -28 -7 -7 13 -20 111 -77 50 -29 104 -60 120 -70 17 -10 70 -41 118 -69
49 -28 93 -51 98 -51 5 0 9 -4 9 -10 0 -5 5 -10 10 -10 8 0 201 -104 260 -140
8 -5 45 -25 82 -44 l68 -34 72 37 c40 21 134 73 208 116 74 44 145 84 157 89
13 6 23 14 23 19 0 4 4 7 10 7 5 0 40 18 77 40 86 51 67 40 283 168 102 61
201 119 220 130 19 11 73 41 120 68 47 27 98 55 113 62 l28 12 -2 -62 c-1 -35
-6 -79 -10 -98 -4 -19 -10 -51 -12 -70 -14 -97 -61 -285 -77 -305 -4 -5 -11
-21 -15 -35 -8 -28 -85 -188 -113 -235 -30 -51 -75 -120 -81 -125 -3 -3 -25
-30 -48 -61 -96 -129 -250 -273 -398 -370 -89 -59 -238 -139 -259 -139 -9 0
-16 -4 -16 -9 0 -5 -10 -11 -22 -14 -13 -3 -57 -17 -98 -32 -65 -23 -155 -47
-225 -61 -58 -11 -75 -14 -125 -20 -73 -10 -333 -11 -390 -1 -63 10 -70 12
-205 47 -266 70 -261 70 -363 26 -89 -38 -212 -102 -487 -251 -38 -21 -71 -42
-73 -47 -2 -4 -7 -8 -12 -8 -10 0 -171 -92 -212 -121 -15 -11 -28 -23 -28 -27
0 -10 41 -36 305 -194 127 -76 239 -144 250 -150 11 -7 22 -13 25 -13 3 0 30
-16 60 -35 30 -20 66 -41 80 -48 14 -6 32 -16 40 -22 35 -24 473 -270 480
-270 4 0 13 -7 20 -15 7 -8 16 -12 21 -9 5 3 9 2 9 -3 0 -4 10 -13 23 -19 12
-6 80 -41 152 -79 l129 -69 81 43 c149 80 630 356 633 363 2 5 8 8 13 8 5 0
42 19 82 42 133 76 172 99 202 117 17 10 51 29 77 44 25 14 64 37 87 51 22 14
43 26 46 26 3 0 24 11 46 26 22 14 56 34 75 45 63 36 99 56 149 86 28 16 57
32 65 36 8 4 29 16 45 27 17 10 41 25 55 33 122 69 177 101 190 113 8 7 17 12
20 11 3 0 16 6 30 15 29 18 574 334 637 369 35 20 43 29 44 54 1 51 -2 1256
-6 2132 -2 458 -6 841 -10 850 -3 10 -132 90 -293 182 -158 90 -371 213 -474
273 -103 59 -192 108 -197 108 -6 0 -11 4 -11 9 0 5 -8 11 -17 15 -10 3 -31
14 -48 24 -42 26 -126 73 -152 86 -13 6 -23 14 -23 19 0 4 -6 7 -14 7 -7 0
-25 9 -40 21 -14 11 -26 17 -26 13 0 -4 -8 0 -17 8 -10 8 -38 26 -63 39 -25
13 -48 28 -51 32 -3 5 -9 8 -13 8 -3 -1 -16 5 -29 13 -65 40 -291 166 -298
166 -5 0 -9 5 -9 10 0 6 -4 10 -9 10 -5 0 -96 50 -201 110 -106 61 -196 110
-201 110 -5 0 -9 3 -9 8 0 4 -20 16 -45 27 -25 11 -45 22 -45 25 0 3 -23 16
-50 29 -28 14 -50 29 -50 33 0 4 -9 8 -19 8 -11 0 -22 4 -25 9 -9 13 -142 81
-160 81 -9 0 -16 -4 -16 -10z"/>
</g>
</svg>
